<svg xmlns="http://www.w3.org/2000/svg" viewBox="0 0 104.81 27.94"><defs><style>.cls-1{fill:#215f98;}.cls-2{fill:#36fa6f;}.cls-3{fill:#58595b;stroke:#808184;stroke-miterlimit:10;stroke-width:0.25px;}.cls-4{fill:#0c0c0c;}</style></defs><g id="Layer_2" data-name="Layer 2"><g id="Layer_1-2" data-name="Layer 1"><circle class="cls-1" cx="13.97" cy="13.97" r="13.97"/><path class="cls-2" d="M14.2,6.64h5.44c.87,0,1.2.31,1.2,1.19q0,3.14,0,6.27c0,.82-.36,1.17-1.18,1.18H17.39c-.28,0-.56.05-.56-.4s.3-.43.59-.43c.72,0,1.44,0,2.16,0,.33,0,.46-.12.46-.46q0-3,0-6.1c0-.36-.16-.48-.5-.48H8.83c-.35,0-.5.12-.5.49q0,3,0,6.1c0,.33.13.45.46.45h2.27c.31,0,.48.07.47.43s-.18.39-.45.39c-.84,0-1.68,0-2.51,0a.94.94,0,0,1-1-1q0-3.31,0-6.63c0-.69.38-1,1.1-1Z"/><path class="cls-2" d="M14.13,15.4H12.64c-.39,0-.6-.15-.6-.56,0-.81,0-1.63,0-2.44,0-.66.49-.72.93-.89s.56.17.74.41c.5.64.5.65,1,0,.22-.29.38-.57.86-.38s.83.31.8.92c0,.77,0,1.55,0,2.32,0,.46-.21.64-.66.63S14.65,15.4,14.13,15.4Z"/><path class="cls-2" d="M14.4,22.33H13.14c-.47,0-.67-.21-.54-.87a2.8,2.8,0,0,0,0-1.08c-.18-1,.17-1.13,1.65-1.22a5.35,5.35,0,0,1,.8,0c.75.1,1.15.2,1.16.69q0,1,0,2.1a.34.34,0,0,1-.33.34Z"/><path class="cls-2" d="M18.6,22.33c-.42,0-.84,0-1.25,0s-.61-.15-.6-.55c0-.66,0-1.31.05-2a.46.46,0,0,1,.37-.46,4.43,4.43,0,0,1,2.81,0,.51.51,0,0,1,.44.55c0,.63,0,1.27,0,1.9,0,.38-.15.56-.53.55Z"/><path class="cls-2" d="M10,22.34H9.8c-1.88,0-1.6.29-1.63-1.67,0-1.32.05-1.38,1.38-1.54a4.72,4.72,0,0,1,1.83.21.6.6,0,0,1,.43.58c0,.65,0,1.3,0,1.94,0,.33-.16.48-.48.47H10Z"/><path class="cls-2" d="M14.18,11a1.46,1.46,0,0,1-1.41-1.42,1.41,1.41,0,0,1,1.45-1.37A1.45,1.45,0,0,1,15.6,9.59,1.47,1.47,0,0,1,14.18,11Z"/><path class="cls-2" d="M15.57,17.41a1.21,1.21,0,1,1-2.42,0,1.21,1.21,0,0,1,2.42,0Z"/><path class="cls-2" d="M11.32,17.41a1.2,1.2,0,1,1-2.4,0,1.2,1.2,0,0,1,2.4,0Z"/><path class="cls-2" d="M18.61,18.63a1.22,1.22,0,0,1-1.2-1.23,1.17,1.17,0,0,1,1.18-1.16,1.21,1.21,0,0,1,1.22,1.21A1.24,1.24,0,0,1,18.61,18.63Z"/><line class="cls-3" x1="32.88" y1="6.82" x2="32.88" y2="24.04"/><path class="cls-4" d="M43.48,9.64h-2.6l-.6,1.82H39l2.5-7h1.42l2.5,7H44.08Zm-2.3-1h2l-1-3h0Z"/><path class="cls-4" d="M46.09,4.09h1.22v7.37H46.09Z"/><path class="cls-4" d="M48.43,4.09h1.21v7.37H48.43Z"/><path class="cls-4" d="M55.67,4.42c2.1,0,3.35,1.27,3.35,3.5s-1.24,3.54-3.35,3.54H53.06v-7Zm-1.35,6h1.22c1.41,0,2.19-.87,2.19-2.47s-.79-2.45-2.19-2.45H54.32Z"/><path class="cls-4" d="M59.67,9.93c0-.95.73-1.49,2.07-1.57l1.39-.09V7.88c0-.56-.38-.87-1-.87a1,1,0,0,0-1,.72H59.94c0-1,.94-1.68,2.19-1.68s2.2.7,2.2,1.76v3.65H63.16V10.6h0a1.84,1.84,0,0,1-1.66.92A1.63,1.63,0,0,1,59.67,9.93Zm3.46-.45V9.07l-1.22.08c-.67,0-1,.3-1,.74s.37.7.94.7A1.19,1.19,0,0,0,63.13,9.48Z"/><path class="cls-4" d="M65.45,13.38v-1a1.77,1.77,0,0,0,.33,0,.87.87,0,0,0,1-.7l.07-.25L64.9,6.13h1.32l1.28,4.28h0L68.8,6.13h1.28l-1.93,5.52c-.45,1.31-1,1.76-2.22,1.76A3.75,3.75,0,0,1,65.45,13.38Z"/><path class="cls-4" d="M77.58,11.46H73v-7h4.56V5.48h-3.3V7.39H77.4v1H74.28v2h3.3Z"/><path class="cls-4" d="M78.57,6.13h1.17v.92h0a1.69,1.69,0,0,1,1.67-1A1.76,1.76,0,0,1,83.3,8v3.42H82.08V8.28c0-.76-.36-1.19-1.09-1.19a1.18,1.18,0,0,0-1.2,1.31v3.06H78.57Z"/><path class="cls-4" d="M84.28,11.86h1.21c.11.39.58.63,1.19.63.8,0,1.31-.41,1.31-1.07v-.9h0a1.8,1.8,0,0,1-1.68.92c-1.31,0-2.2-1-2.2-2.66S85,6.07,86.31,6.07A1.82,1.82,0,0,1,88,7h0V6.13H89.2v5.2c0,1.27-1,2.07-2.55,2.07C85.31,13.4,84.37,12.8,84.28,11.86ZM88,8.78c0-1-.53-1.7-1.34-1.7s-1.32.66-1.32,1.7.51,1.68,1.32,1.68S88,9.81,88,8.78Z"/><path class="cls-4" d="M90.28,4.09H91.5v7.37H90.28Z"/><path class="cls-4" d="M92.53,4.78a.69.69,0,0,1,1.37,0,.69.69,0,0,1-1.37,0Zm.08,1.35h1.21v5.33H92.61Z"/><path class="cls-4" d="M96.94,6.05c1.23,0,2.09.67,2.12,1.63H97.92c0-.45-.42-.73-1-.73S96,7.21,96,7.6s.25.5.78.62l.94.22c1.07.25,1.48.65,1.48,1.44,0,1-.93,1.66-2.27,1.66s-2.17-.66-2.25-1.65h1.2c.07.48.47.75,1.1.75s1-.25,1-.64-.2-.48-.73-.61l-1-.23c-1-.23-1.47-.73-1.47-1.49C94.8,6.7,95.66,6.05,96.94,6.05Z"/><path class="cls-4" d="M100,4.09h1.2v3h0a1.7,1.7,0,0,1,1.68-1,1.79,1.79,0,0,1,1.87,2v3.41h-1.22V8.3c0-.75-.37-1.21-1.11-1.21a1.19,1.19,0,0,0-1.23,1.33v3H100Z"/><path class="cls-4" d="M43.48,21.64h-2.6l-.6,1.82H39l2.5-7h1.42l2.5,7H44.08Zm-2.3-1h2l-1-3h0Z"/><path class="cls-4" d="M49.42,20a1.12,1.12,0,0,0-1.19-1c-.8,0-1.33.68-1.33,1.75s.53,1.76,1.33,1.76a1.1,1.1,0,0,0,1.19-.94h1.15a2.14,2.14,0,0,1-2.35,1.93,2.47,2.47,0,0,1-2.55-2.75,2.48,2.48,0,0,1,2.54-2.74,2.18,2.18,0,0,1,2.36,2Z"/><path class="cls-4" d="M51.09,21.93c0-.95.73-1.49,2.08-1.57l1.38-.09v-.39c0-.56-.38-.87-1-.87a1,1,0,0,0-1,.72H51.36c0-1,.94-1.68,2.2-1.68s2.19.7,2.19,1.76v3.65H54.59V22.6h0a1.86,1.86,0,0,1-1.66.92A1.64,1.64,0,0,1,51.09,21.93Zm3.46-.45v-.4l-1.22.07c-.66.05-1,.3-1,.74s.37.7.93.7A1.18,1.18,0,0,0,54.55,21.48Z"/><path class="cls-4" d="M56.55,20.79c0-1.65.89-2.72,2.22-2.72a1.76,1.76,0,0,1,1.66.95h0V16.09h1.21v7.37H60.48v-.91h0a1.8,1.8,0,0,1-1.69,1C57.44,23.52,56.55,22.45,56.55,20.79Zm1.24,0c0,1.05.53,1.71,1.34,1.71s1.33-.68,1.33-1.71-.53-1.72-1.33-1.72S57.79,19.75,57.79,20.8Z"/><path class="cls-4" d="M67.41,21.88a2.18,2.18,0,0,1-2.35,1.66,2.45,2.45,0,0,1-2.55-2.72A2.48,2.48,0,0,1,65,18.05a2.37,2.37,0,0,1,2.44,2.64v.4H63.73v.07a1.32,1.32,0,0,0,1.36,1.43,1.15,1.15,0,0,0,1.18-.71Zm-3.67-1.6h2.52A1.21,1.21,0,0,0,65,19,1.28,1.28,0,0,0,63.74,20.28Z"/><path class="cls-4" d="M68.28,18.13h1.16v.93h0a1.56,1.56,0,0,1,1.52-1,1.44,1.44,0,0,1,1.49,1.06h0a1.72,1.72,0,0,1,1.66-1.06,1.66,1.66,0,0,1,1.74,1.77v3.63H74.7V20.13a.91.91,0,0,0-1-1,1,1,0,0,0-1,1.1v3.27H71.51v-3.4a.9.9,0,0,0-1-1,1.05,1.05,0,0,0-1.05,1.13v3.24H68.28Z"/><path class="cls-4" d="M77,25.38v-1a1.77,1.77,0,0,0,.33,0,.87.87,0,0,0,1-.7l.06-.25-1.9-5.35H77.8l1.28,4.28h0l1.28-4.28h1.28l-1.93,5.52c-.46,1.31-1,1.76-2.22,1.76A3.75,3.75,0,0,1,77,25.38Z"/></g></g></svg>